<svg width="24" height="24" viewBox="0 0 24 24" fill="none" xmlns="http://www.w3.org/2000/svg">
    <g clip-path="url(#clip0_2623_1520)">
        <path d="M5.53311 12.0649L14.1585 3.43947C14.3198 3.27821 14.5385 3.18761 14.7666 3.18761C14.9946 3.18761 15.2133 3.2782 15.3746 3.43946L23.392 11.4568C23.5532 11.6181 23.6438 11.8368 23.6438 12.0649C23.6438 12.2929 23.5532 12.5117 23.392 12.6729L15.3746 20.6903C15.2133 20.8516 14.9946 20.9422 14.7666 20.9422C14.5385 20.9422 14.3198 20.8516 14.1585 20.6903L5.53311 12.0649Z" fill="#FEC80E" />
        <path d="M11.0652 6.53229L15.9899 11.457C16.1512 11.6182 16.2418 11.8369 16.2418 12.065C16.2418 12.2931 16.1512 12.5118 15.9899 12.673L11.0652 17.5977L5.53253 12.065L11.0652 6.53229Z" fill="#7208B7" />
        <path d="M0.6093 5.92468L4.92595 1.60803C5.08721 1.44677 5.30592 1.35618 5.53398 1.35618C5.76204 1.35618 5.98076 1.44677 6.14202 1.60803L11.0667 6.53271L5.53398 12.0654L0.609301 7.14075C0.44804 6.97949 0.357444 6.76077 0.357444 6.53271C0.357444 6.30466 0.44804 6.08594 0.6093 5.92468Z" fill="#F73C9A" />
        <path d="M5.5327 12.0649L11.0654 17.5977L6.14073 22.5223C5.97947 22.6836 5.76076 22.7742 5.5327 22.7742C5.30464 22.7742 5.08593 22.6836 4.92467 22.5223L0.608018 18.2057C0.446757 18.0444 0.356162 17.8257 0.356162 17.5977C0.356162 17.3696 0.446756 17.1509 0.608017 16.9896L5.5327 12.0649Z" fill="#04C9FB" />
    </g>
    <defs>
        <clipPath id="clip0_2623_1520">
            <rect width="24" height="24" fill="white" />
        </clipPath>
    </defs>
</svg>
